<?xml version="1.0" standalone="no"?>
<!DOCTYPE svg PUBLIC "-//W3C//DTD SVG 20010904//EN"
 "http://www.w3.org/TR/2001/REC-SVG-20010904/DTD/svg10.dtd">
<svg version="1.0" xmlns="http://www.w3.org/2000/svg"
 width="256.000000pt" height="256.000000pt" viewBox="0 0 256.000000 256.000000"
 preserveAspectRatio="xMidYMid meet">
<metadata>
Created by potrace 1.14, written by Peter Selinger 2001-2017
</metadata>
<g transform="translate(0.000000,256.000000) scale(0.100000,-0.100000)"
fill="#000000" stroke="none">
<path d="M0 1944 c0 -566 1 -615 16 -612 25 5 57 52 56 85 0 15 5 34 10 40 11
13 14 136 4 152 -3 5 19 53 49 106 30 54 55 102 55 106 0 5 14 28 30 51 17 22
30 46 30 52 -1 15 73 165 82 165 4 1 4 -23 2 -51 -6 -61 7 -92 49 -116 22 -14
31 -14 47 -4 11 6 26 12 33 12 18 0 77 29 77 38 0 11 52 32 62 25 6 -3 8 6 3
26 -6 27 -3 32 19 41 16 6 26 17 26 30 0 11 7 20 15 20 8 0 15 7 15 15 0 8 7
15 15 15 18 0 18 0 0 38 -21 41 -37 44 -120 29 -39 -8 -101 -14 -140 -15 l-70
-1 55 14 c30 8 69 14 87 15 17 0 35 5 38 10 4 6 -5 10 -19 10 -48 0 -26 16 39
29 63 13 81 26 50 37 -22 9 -18 23 8 33 15 6 25 5 32 -4 6 -7 30 -14 53 -17
38 -3 43 -1 40 17 -4 25 -60 36 -121 23 -23 -4 -57 -10 -75 -12 -18 -2 -56
-15 -85 -29 -94 -45 -107 -48 -107 -31 0 25 40 97 73 132 17 18 48 37 67 42
95 26 243 3 326 -50 41 -26 53 -28 139 -28 56 0 95 3 95 9 0 6 5 7 11 4 19
-12 134 -13 141 -1 5 7 13 3 23 -11 12 -17 26 -23 56 -23 21 0 39 -5 39 -10 0
-7 7 -7 20 0 11 6 24 9 29 6 5 -3 14 1 21 9 17 20 27 19 35 -4 6 -21 52 -33
76 -20 12 6 21 4 29 -7 7 -8 20 -14 29 -13 9 1 29 -3 45 -10 20 -8 32 -8 41
-1 12 10 45 4 55 -11 3 -4 49 -12 103 -18 166 -19 212 -36 280 -105 54 -54 58
-62 52 -93 -4 -22 -2 -33 6 -33 6 0 9 -8 6 -20 -4 -15 0 -20 14 -20 11 0 21
-9 25 -24 4 -16 15 -26 35 -30 19 -3 33 -14 38 -29 5 -14 17 -27 25 -30 9 -4
16 -16 16 -27 0 -11 7 -23 15 -26 10 -4 13 -13 9 -26 -7 -24 65 -178 85 -178
10 0 11 -3 3 -13 -12 -14 3 -91 22 -116 6 -8 11 -33 11 -55 l0 -41 43 -3 c40
-3 52 -22 13 -22 -9 0 -26 -6 -37 -14 -19 -15 -19 -15 0 -29 18 -13 18 -15 1
-24 -12 -7 -14 -13 -6 -17 18 -12 12 -53 -10 -68 -21 -14 -21 -14 14 -38 19
-13 33 -30 30 -37 -3 -7 -1 -13 4 -13 4 0 14 -10 22 -22 13 -21 13 -22 -2 -9
-10 8 -17 9 -17 3 0 -18 20 -24 35 -12 13 11 15 114 15 731 l0 719 -1280 0
-1280 0 0 -616z m352 184 c-9 -9 -12 -7 -12 12 0 19 3 21 12 12 9 -9 9 -15 0
-24z"/>
<path d="M1184 1956 c-22 -7 -69 -32 -103 -55 -57 -39 -61 -44 -48 -59 8 -10
17 -26 18 -36 2 -11 35 -43 72 -72 106 -82 225 -104 324 -62 39 17 55 31 63
51 11 31 1 61 -24 70 -8 3 -17 19 -21 36 -3 16 -19 47 -34 68 -46 63 -152 89
-247 59z m56 -115 c0 -12 -20 -25 -27 -18 -7 7 6 27 18 27 5 0 9 -4 9 -9z"/>
<path d="M1891 1832 c-26 -32 -27 -53 -2 -73 10 -9 21 -34 25 -55 16 -92 65
-139 158 -151 34 -5 38 -3 62 36 28 43 28 79 0 102 -8 6 -21 36 -30 65 -17 61
-36 84 -67 85 -12 0 -31 2 -42 5 -70 14 -82 13 -104 -14z"/>
<path d="M1740 1520 c-8 -5 -25 -10 -37 -10 -38 0 -26 -17 39 -52 63 -35 90
-67 104 -123 6 -26 5 -28 -8 -17 -17 14 -68 7 -68 -9 0 -22 -76 -46 -135 -43
-43 2 -67 -2 -85 -14 -14 -9 -33 -21 -42 -27 -9 -5 -54 -37 -100 -70 -90 -65
-156 -94 -168 -76 -13 22 -176 -171 -250 -296 -17 -29 -34 -53 -36 -53 -8 0
29 64 86 150 31 47 65 100 75 119 9 19 38 57 63 85 43 47 43 48 7 14 -91 -83
-133 -127 -194 -200 -35 -43 -66 -78 -68 -78 -5 0 22 36 125 163 34 43 62 83
62 89 0 6 3 9 6 5 11 -11 93 63 87 79 -4 11 -11 10 -37 -8 -20 -15 -26 -16
-18 -6 8 10 11 21 8 26 -3 6 2 16 12 23 15 12 16 12 7 -1 -5 -9 0 -4 12 10 13
14 23 28 23 33 0 11 -18 8 -26 -4 -3 -6 -14 -9 -24 -6 -10 2 -24 1 -31 -4 -8
-4 -16 -3 -20 3 -5 7 -43 5 -124 -6 -65 -9 -120 -14 -123 -11 -3 3 2 11 10 18
9 6 19 23 23 37 7 20 5 23 -6 14 -8 -6 -36 -14 -63 -17 -49 -5 -49 -5 -27 12
25 19 18 35 -11 20 -29 -16 -131 -20 -141 -6 -6 8 -7 6 -3 -6 3 -11 -2 -24
-14 -34 -10 -9 -17 -20 -14 -25 3 -4 -3 -8 -13 -8 -10 0 -29 -3 -43 -6 -24 -5
-25 -5 -5 11 11 9 19 22 18 28 -2 7 7 17 19 22 36 17 34 35 -5 35 -19 0 -40 7
-47 15 -14 17 -35 21 -25 5 3 -6 -1 -7 -10 -4 -12 5 -16 2 -13 -12 2 -13 -8
-25 -34 -38 -43 -24 -64 -13 -28 14 14 11 20 20 15 20 -6 0 -22 -11 -35 -23
-14 -13 -44 -26 -65 -29 -22 -3 -48 -9 -58 -13 -13 -6 -20 -2 -23 11 -4 16
-16 19 -89 21 -46 1 -87 -2 -90 -7 -13 -20 -35 -179 -34 -240 1 -44 -6 -83
-20 -120 -25 -67 -25 -63 -1 -57 20 5 20 5 -1 -24 -20 -29 -14 -40 9 -17 9 9
12 8 12 -5 0 -10 -11 -23 -25 -29 l-25 -11 0 -379 0 -378 1015 0 c708 0 1015
3 1015 11 0 5 4 8 9 5 12 -8 42 4 36 14 -3 4 2 10 10 14 8 3 15 13 15 23 0 16
2 16 11 3 8 -11 12 -12 16 -2 2 6 11 12 20 12 24 0 9 25 -18 28 -13 2 -31 5
-39 8 -13 5 -13 7 0 17 8 7 16 24 17 40 0 15 11 35 23 45 20 16 22 23 13 48
-7 22 -6 38 5 64 8 19 14 48 13 63 -2 19 10 49 33 87 23 37 38 76 42 106 3 27
12 64 20 82 26 64 19 101 -37 175 -51 67 -62 74 -88 58 -8 -5 -20 -7 -28 -4
-17 7 -17 63 0 63 7 0 8 3 2 8 -5 4 -12 23 -13 42 -4 34 -4 35 16 17 20 -18
20 -18 8 17 -7 20 -15 39 -19 42 -11 11 -8 44 4 44 6 0 9 12 7 27 -2 20 -14
32 -47 50 -24 13 -58 38 -75 57 -26 29 -36 33 -63 29 -23 -4 -34 -1 -38 9 -9
22 47 111 78 126 l27 13 -23 32 c-12 18 -23 34 -24 36 -1 1 -12 -4 -25 -13
-31 -22 -64 -20 -89 5 -12 12 -29 19 -40 16 -10 -3 -19 -1 -19 4 0 12 -11 11
-30 -1z m-1180 -274 c0 -3 -4 -8 -10 -11 -5 -3 -10 -1 -10 4 0 6 5 11 10 11 6
0 10 -2 10 -4z m1416 -14 c11 -8 26 -42 18 -42 -3 0 -17 11 -32 25 -18 17 -22
25 -12 25 8 0 20 -4 26 -8z m-395 -23 c14 -7 24 -7 33 0 15 13 26 5 26 -18 0
-10 -3 -12 -8 -5 -10 15 -64 -16 -78 -45 -6 -12 -14 -21 -17 -19 -3 2 -13 -4
-23 -13 -11 -9 -29 -20 -42 -24 -12 -3 -34 -23 -48 -43 l-25 -37 4 30 c3 29
28 78 55 113 12 15 13 15 7 -3 -5 -16 0 -14 25 10 24 23 30 25 24 10 -7 -20
-7 -20 14 -1 12 11 22 27 22 38 0 21 4 22 31 7z m-1311 -8 c0 -5 -7 -12 -16
-15 -14 -5 -15 -4 -4 9 14 17 20 19 20 6z m285 -66 c34 2 55 -13 47 -34 -4
-11 -1 -13 13 -8 15 6 16 5 6 -7 -7 -8 -26 -19 -43 -25 -25 -9 -29 -8 -24 4 7
20 -11 29 -58 27 -53 -3 -75 10 -57 32 8 9 18 16 23 16 6 0 4 -8 -3 -17 -11
-14 -8 -13 21 3 19 11 37 18 40 14 3 -3 18 -6 35 -5z m811 -108 c-37 -78 -95
-242 -97 -273 0 -11 -3 -14 -5 -8 -11 26 73 282 111 340 32 49 27 15 -9 -59z
m-54 21 c-7 -7 -12 -8 -12 -2 0 14 12 26 19 19 2 -3 -1 -11 -7 -17z m-65 -104
c-25 -38 -56 -93 -71 -121 -14 -29 -29 -53 -31 -53 -7 0 28 68 73 145 56 96
63 107 68 102 3 -3 -15 -36 -39 -73z m211 -132 c-1 -119 -2 -128 -8 -67 -4 39
-9 79 -10 90 -5 47 1 126 9 120 5 -3 9 -67 9 -143z m-1232 70 c-18 -16 -18
-16 -6 6 6 13 14 21 18 18 3 -4 -2 -14 -12 -24z m-46 -12 c0 -5 -5 -10 -11
-10 -5 0 -7 5 -4 10 3 6 8 10 11 10 2 0 4 -4 4 -10z"/>
<path d="M576 1385 c-19 -14 -18 -15 10 -15 16 0 38 7 48 15 19 14 18 15 -10
15 -16 0 -38 -7 -48 -15z"/>
<path d="M1087 1306 c-38 -42 -70 -54 -94 -35 -9 8 -24 6 -53 -7 -42 -19 -52
-34 -22 -34 48 1 220 28 240 39 32 17 27 28 -10 23 l-32 -5 17 26 c35 54 5 50
-46 -7z m13 -26 c-20 -13 -33 -13 -25 0 3 6 14 10 23 10 15 0 15 -2 2 -10z"/>
<path d="M1240 1320 c-13 -8 -13 -10 2 -10 9 0 20 5 23 10 8 13 -5 13 -25 0z"/>
<path d="M1355 1320 c-3 -5 -1 -10 4 -10 6 0 11 5 11 10 0 6 -2 10 -4 10 -3 0
-8 -4 -11 -10z"/>
<path d="M1470 1290 c0 -5 4 -10 9 -10 6 0 13 5 16 10 3 6 -1 10 -9 10 -9 0
-16 -4 -16 -10z"/>
<path d="M2384 107 c-12 -6 -32 -20 -45 -29 -13 -9 -36 -20 -51 -23 -24 -6
-28 -4 -28 15 0 17 -5 21 -19 17 -14 -3 -18 -1 -14 10 4 11 2 14 -8 11 -8 -3
-13 -12 -11 -22 2 -10 -4 -16 -17 -16 -24 0 -36 -16 -19 -23 10 -4 10 -8 -1
-15 -7 -5 -10 -15 -7 -21 10 -16 29 -13 23 4 -4 8 -2 17 2 20 5 3 12 -3 15
-12 6 -15 7 -15 19 1 10 14 17 15 45 5 17 -6 32 -15 32 -20 0 -5 46 -9 102 -9
56 0 98 3 95 7 -4 3 -2 12 4 19 8 10 5 24 -12 54 -19 33 -28 40 -53 40 -17 0
-41 -6 -52 -13z"/>
</g>
</svg>
